HIERARCHY
ROOT Hips
{
    OFFSET 0.0 0.0 0.0
    CHANNELS 6 Xposition Yposition Zposition Zrotation Xrotation Yrotation
    JOINT LeftHipJoint
    {
        OFFSET 0.1 0.0 0.0
        CHANNELS 3 Zrotation Xrotation Yrotation
        JOINT LeftUpLeg
        {
            OFFSET 118.31707268607184 0.0 0.0
            CHANNELS 3 Zrotation Xrotation Yrotation
            JOINT LeftLeg
            {
                OFFSET 0.0 0.0 -402.3489337676623
                CHANNELS 3 Zrotation Xrotation Yrotation
                JOINT LeftFoot
                {
                    OFFSET 0.0 0.0 -399.86654119079594
                    CHANNELS 3 Zrotation Xrotation Yrotation
                    End Site
                    {
                        OFFSET 0.0 -0.1 0.0
                    }
                }
            }
        }
    }
    JOINT LowerBack
    {
        OFFSET 0.0 0.0 0.1
        CHANNELS 3 Zrotation Xrotation Yrotation
        JOINT Spine
        {
            OFFSET 0.0 0.0 219.35238638858002
            CHANNELS 3 Zrotation Xrotation Yrotation
            JOINT Spine1
            {
                OFFSET 0.0 0.0 251.5619903774828
                CHANNELS 3 Zrotation Xrotation Yrotation
                JOINT LeftShoulder
                {
                    OFFSET 0.1 0.0 0.0
                    CHANNELS 3 Zrotation Xrotation Yrotation
                    JOINT LeftArm
                    {
                        OFFSET 141.91542422619278 0.0 0.0
                        CHANNELS 3 Zrotation Xrotation Yrotation
                        JOINT LeftForeArm
                        {
                            OFFSET 251.7435199160994 0.0 0.0
                            CHANNELS 3 Zrotation Xrotation Yrotation
                            JOINT LeftHand
                            {
                                OFFSET 247.69490881713932 0.0 0.0
                                CHANNELS 3 Zrotation Xrotation Yrotation
                                End Site
                                {
                                    OFFSET 0.1 0.0 0.0
                                }
                            }
                        }
                    }
                }
                JOINT Neck
                {
                    OFFSET 0.0 0.0 0.1
                    CHANNELS 3 Zrotation Xrotation Yrotation
                    JOINT Neck1
                    {
                        OFFSET 0.0 0.0 107.30046745440914
                        CHANNELS 3 Zrotation Xrotation Yrotation
                        End Site
                        {
                            OFFSET 0.0 0.0 116.79009760593347
                        }
                    }
                }
                JOINT RightShoulder
                {
                    OFFSET -0.1 0.0 0.0
                    CHANNELS 3 Zrotation Xrotation Yrotation
                    JOINT RightArm
                    {
                        OFFSET -141.91542422619278 0.0 0.0
                        CHANNELS 3 Zrotation Xrotation Yrotation
                        JOINT RightForeArm
                        {
                            OFFSET -251.7435199160994 0.0 0.0
                            CHANNELS 3 Zrotation Xrotation Yrotation
                            JOINT RightHand
                            {
                                OFFSET -247.69490881713932 0.0 0.0
                                CHANNELS 3 Zrotation Xrotation Yrotation
                                End Site
                                {
                                    OFFSET -0.1 0.0 0.0
                                }
                            }
                        }
                    }
                }
            }
        }
    }
    JOINT RightHipJoint
    {
        OFFSET -0.1 0.0 0.0
        CHANNELS 3 Zrotation Xrotation Yrotation
        JOINT RightUpLeg
        {
            OFFSET -118.31707268607184 0.0 0.0
            CHANNELS 3 Zrotation Xrotation Yrotation
            JOINT RightLeg
            {
                OFFSET 0.0 0.0 -402.3489337676623
                CHANNELS 3 Zrotation Xrotation Yrotation
                JOINT RightFoot
                {
                    OFFSET 0.0 0.0 -399.86654119079594
                    CHANNELS 3 Zrotation Xrotation Yrotation
                    End Site
                    {
                        OFFSET 0.0 -0.1 0.0
                    }
                }
            }
        }
    }
}
MOTION
Frames: 6
Frame Time: 0.03333333333333333
0.0 0.0 809.8677378150152 24.373500580335104 4.393423499838121 3.149688721523054 0.0 0.0 -3.975693351829396e-16 -0.4139045493901237 -19.065641388622783 -0.09458683076730154 0.44222397570098976 20.623814574281756 0.7920178589998679 0.0 0.0 -3.9756933518293955e-16 0.0 0.0 -3.975693351829396e-16 -0.010485146755477712 -0.500217634090269 -1.6906309977475542 2.2543510782830642 -2.981193024270112e-16 5.865635233911496e-18 0.0 0.0 0.0 -40.447260484545836 3.783642617872362 74.02801278304406 -26.880097115993802 2.28859803492018e-16 1.2726371591113285e-14 0.0 0.0 5.963540027744094e-16 0.0 0.0 0.0 -0.5316258022697663 -5.437001552125619 1.3563690285661918 0.0 0.0 0.0 30.729774190344227 1.8145322109828026 -68.97768169457972 33.41313303880439 2.7429449441662622e-15 9.138906158249365e-15 0.0 0.0 0.0 0.0 0.0 -3.975693351829396e-16 -0.33605318218750074 -15.584186482976113 -0.01756914006079389 0.44497162391577594 19.88439346936412 -3.0841543364447994 0.0 0.0 -3.975693351829396e-16
0.0 0.0 809.8677378150152 24.502638102067046 4.196685120174793 3.226973973926275 0.0 0.0 -9.93923337957349e-17 -0.42756155272096125 -19.015282351956948 -0.15797135003347051 0.43941368716565865 20.804213652912857 0.7608834090442572 0.0 0.0 1.987846675914698e-16 0.0 0.0 -9.93923337957349e-17 -0.011754699864132155 -0.5414862703839396 -1.7834125310118156 2.417722879202094 2.008373093305622e-16 9.517644281897689e-17 0.0 0.0 0.0 -40.79005861594892 4.118520102282338 74.32124220702688 -26.796572670624723 -4.698338925857814e-15 1.9724179350136192e-14 0.0 0.0 -2.186631343506168e-15 0.0 0.0 0.0 -0.8880955398440473 -5.404269131599417 1.378670140836912 0.0 0.0 0.0 30.635771348612383 1.557706551122293 -68.65349920975353 33.55985042419957 7.008472390589235e-15 1.2086997804442134e-15 0.0 0.0 0.0 0.0 0.0 -9.93923337957349e-17 -0.3459360196926008 -15.500213283611506 -0.09829863294191545 0.4343360716305738 19.99891002587381 -3.0387862011743425 -8.620910738379216e-35 -4.9696166897867443e-17 -1.9878466759146977e-16
0.0 0.0 809.8677378150152 24.471447003145204 4.1118461502220525 3.3007280073993184 0.0 0.0 1.987846675914698e-16 -0.431614224279614 -19.035255987152382 -0.2892923431547243 0.40019675486286654 21.114034354428014 0.8143339084904774 0.0 0.0 3.975693351829396e-16 0.0 0.0 1.987846675914698e-16 -0.011909676592529408 -0.5440412743457439 -1.8319929530715724 2.627619407222687 6.007550221406648e-16 1.8505902860244595e-16 0.0 0.0 0.0 -40.86913727401552 4.117450804002749 74.32293604753009 -26.851653153887966 5.4013888021521516e-15 -8.929125783826355e-15 0.0 0.0 -9.243487043003345e-15 0.0 0.0 0.0 -1.167046891667877 -5.4921104786868264 1.3726868378425041 0.0 0.0 0.0 30.64651554461293 0.9138335372265274 -68.12299942129735 33.86075028205101 -9.262074326353265e-16 -3.0427073262985003e-15 0.0 0.0 0.0 0.0 0.0 1.987846675914698e-16 -0.34923043136923776 -15.514639865325739 -0.23907374442811974 0.39080842398872395 20.176491272880476 -2.9315408602433743 0.0 0.0 -1.987846675914698e-16
0.0 0.0 809.8677378150152 24.48770436982994 3.94398921203694 3.403006106325696 0.0 0.0 -8.94531004161614e-16 -0.45861553090244245 -18.96466309394684 -0.42130717795260914 0.38857629726871895 21.386464716152833 0.8682978785417864 0.0 0.0 -1.987846675914698e-16 0.0 0.0 -8.94531004161614e-16 -0.013581597523267467 -0.5816083431214569 -1.9560775941933364 2.718105704980157 -1.7986986997629744e-16 7.996297137146538e-16 0.0 -3.975693351829396e-16 0.0 -41.3509622088379 4.2917961488301986 74.38119428812897 -26.749222906209422 -9.196447847999494e-16 3.867866478767165e-15 0.0 0.0 -2.981770013872047e-16 0.0 -3.975693351829396e-16 0.0 -1.3086726020721984 -5.52550272844515 1.3855163714932495 0.0 -3.975693351829396e-16 0.0 30.43943855735187 0.6942928449853263 -67.87177265590854 34.10873396954488 1.7311385096986644e-14 -8.63743509669797e-15 0.0 0.0 0.0 0.0 0.0 -8.94531004161614e-16 -0.36873695629010794 -15.365465306097681 -0.3495598415896587 0.3841349777814831 20.292836112066734 -2.94252522559616 0.0 0.0 0.0
0.0 0.0 809.8677378150152 24.478854366204278 3.8206650498053927 3.486045918501396 0.0 0.0 -1.987846675914698e-16 -0.43857060868837094 -18.97747324438821 -0.5241829189999925 0.3300645871232156 21.759709327749263 0.9068937956731508 3.1805546814635164e-15 7.951386703658791e-16 -1.1927080055488186e-15 0.0 0.0 -1.987846675914698e-16 -0.014424974302504492 -0.6462704606639137 -2.0638925192769917 2.809620760356361 5.888646194786646e-16 -3.1270766013574554e-16 0.0 0.0 -9.93923337957349e-17 -41.431989042787286 4.42386080780381 74.4578710537935 -26.814988040981852 -5.0815035546890835e-15 -6.1157887581900685e-15 0.0 0.0 9.93923337957349e-17 0.0 0.0 -9.93923337957349e-17 -1.347660453119518 -5.528357124577161 1.463134080049693 0.0 0.0 -9.93923337957349e-17 29.996125754186085 0.5003951851648231 -67.63065474067797 34.407587926151216 -6.508710270854727e-15 2.199238392859228e-14 -6.3611093629270335e-15 0.0 0.0 0.0 0.0 -1.987846675914698e-16 -0.35154267161165237 -15.323732824093696 -0.46487614899146945 0.3209301836696283 20.42120421656596 -2.8968012027129886 0.0 0.0 0.0
0.0 0.0 809.8677378150152 24.442290858070756 3.5513988002632564 3.543824379162576 0.0 0.0 -3.975693351829396e-16 -0.4262856959911777 -18.81927438553707 -0.5993372505590886 0.2935535516887123 22.04995423681737 0.9128025699682053 4.138037154422024e-33 7.951386703658792e-16 -5.963540027744094e-16 0.0 0.0 -3.975693351829396e-16 -0.01626932571236817 -0.743022784607643 -2.15136368068815 2.8899670364751757 -4.049620513846988e-16 -2.8805665653195087e-16 0.0 0.0 9.93923337957349e-17 -41.477380435945086 4.7778846876292524 74.67878525416417 -26.710314079884824 2.607593076113393e-15 1.65552264857677e-14 5.517382872562698e-32 3.1805546814635176e-15 -1.9878466759146984e-15 0.0 0.0 9.93923337957349e-17 -1.427096333908157 -5.4256538750694485 1.5380285009637145 0.0 0.0 9.93923337957349e-17 29.85598526330275 0.6537799258947505 -67.65178552593842 34.564969462687834 2.524055208928027e-14 -4.5221516498229615e-15 0.0 0.0 0.0 0.0 0.0 -3.975693351829396e-16 -0.3408452338501527 -15.15015729046898 -0.5673287787713024 0.27448958508269095 20.52344883276034 -2.7865281048636055 0.0 0.0 0.0
